%TF.GenerationSoftware,KiCad,Pcbnew,9.0.6*%
%TF.CreationDate,2026-04-09T18:15:54+05:30*%
%TF.ProjectId,ESP32_Bot_PCB,45535033-325f-4426-9f74-5f5043422e6b,rev?*%
%TF.SameCoordinates,Original*%
%TF.FileFunction,Legend,Top*%
%TF.FilePolarity,Positive*%
%FSLAX46Y46*%
G04 Gerber Fmt 4.6, Leading zero omitted, Abs format (unit mm)*
G04 Created by KiCad (PCBNEW 9.0.6) date 2026-04-09 18:15:54*
%MOMM*%
%LPD*%
G01*
G04 APERTURE LIST*
%ADD10C,0.150000*%
%ADD11C,0.120000*%
G04 APERTURE END LIST*
D10*
X121095237Y-106954819D02*
X120523809Y-106954819D01*
X120809523Y-106954819D02*
X120809523Y-105954819D01*
X120809523Y-105954819D02*
X120714285Y-106097676D01*
X120714285Y-106097676D02*
X120619047Y-106192914D01*
X120619047Y-106192914D02*
X120523809Y-106240533D01*
X121714285Y-105954819D02*
X121809523Y-105954819D01*
X121809523Y-105954819D02*
X121904761Y-106002438D01*
X121904761Y-106002438D02*
X121952380Y-106050057D01*
X121952380Y-106050057D02*
X121999999Y-106145295D01*
X121999999Y-106145295D02*
X122047618Y-106335771D01*
X122047618Y-106335771D02*
X122047618Y-106573866D01*
X122047618Y-106573866D02*
X121999999Y-106764342D01*
X121999999Y-106764342D02*
X121952380Y-106859580D01*
X121952380Y-106859580D02*
X121904761Y-106907200D01*
X121904761Y-106907200D02*
X121809523Y-106954819D01*
X121809523Y-106954819D02*
X121714285Y-106954819D01*
X121714285Y-106954819D02*
X121619047Y-106907200D01*
X121619047Y-106907200D02*
X121571428Y-106859580D01*
X121571428Y-106859580D02*
X121523809Y-106764342D01*
X121523809Y-106764342D02*
X121476190Y-106573866D01*
X121476190Y-106573866D02*
X121476190Y-106335771D01*
X121476190Y-106335771D02*
X121523809Y-106145295D01*
X121523809Y-106145295D02*
X121571428Y-106050057D01*
X121571428Y-106050057D02*
X121619047Y-106002438D01*
X121619047Y-106002438D02*
X121714285Y-105954819D01*
X122904761Y-106288152D02*
X122904761Y-106954819D01*
X122476190Y-106288152D02*
X122476190Y-106811961D01*
X122476190Y-106811961D02*
X122523809Y-106907200D01*
X122523809Y-106907200D02*
X122619047Y-106954819D01*
X122619047Y-106954819D02*
X122761904Y-106954819D01*
X122761904Y-106954819D02*
X122857142Y-106907200D01*
X122857142Y-106907200D02*
X122904761Y-106859580D01*
X123238095Y-106288152D02*
X123619047Y-106288152D01*
X123380952Y-106954819D02*
X123380952Y-106097676D01*
X123380952Y-106097676D02*
X123428571Y-106002438D01*
X123428571Y-106002438D02*
X123523809Y-105954819D01*
X123523809Y-105954819D02*
X123619047Y-105954819D01*
X123904762Y-106050057D02*
X123952381Y-106002438D01*
X123952381Y-106002438D02*
X124047619Y-105954819D01*
X124047619Y-105954819D02*
X124285714Y-105954819D01*
X124285714Y-105954819D02*
X124380952Y-106002438D01*
X124380952Y-106002438D02*
X124428571Y-106050057D01*
X124428571Y-106050057D02*
X124476190Y-106145295D01*
X124476190Y-106145295D02*
X124476190Y-106240533D01*
X124476190Y-106240533D02*
X124428571Y-106383390D01*
X124428571Y-106383390D02*
X123857143Y-106954819D01*
X123857143Y-106954819D02*
X124476190Y-106954819D01*
X147074819Y-80083333D02*
X147789104Y-80083333D01*
X147789104Y-80083333D02*
X147931961Y-80130952D01*
X147931961Y-80130952D02*
X148027200Y-80226190D01*
X148027200Y-80226190D02*
X148074819Y-80369047D01*
X148074819Y-80369047D02*
X148074819Y-80464285D01*
X147074819Y-79178571D02*
X147074819Y-79369047D01*
X147074819Y-79369047D02*
X147122438Y-79464285D01*
X147122438Y-79464285D02*
X147170057Y-79511904D01*
X147170057Y-79511904D02*
X147312914Y-79607142D01*
X147312914Y-79607142D02*
X147503390Y-79654761D01*
X147503390Y-79654761D02*
X147884342Y-79654761D01*
X147884342Y-79654761D02*
X147979580Y-79607142D01*
X147979580Y-79607142D02*
X148027200Y-79559523D01*
X148027200Y-79559523D02*
X148074819Y-79464285D01*
X148074819Y-79464285D02*
X148074819Y-79273809D01*
X148074819Y-79273809D02*
X148027200Y-79178571D01*
X148027200Y-79178571D02*
X147979580Y-79130952D01*
X147979580Y-79130952D02*
X147884342Y-79083333D01*
X147884342Y-79083333D02*
X147646247Y-79083333D01*
X147646247Y-79083333D02*
X147551009Y-79130952D01*
X147551009Y-79130952D02*
X147503390Y-79178571D01*
X147503390Y-79178571D02*
X147455771Y-79273809D01*
X147455771Y-79273809D02*
X147455771Y-79464285D01*
X147455771Y-79464285D02*
X147503390Y-79559523D01*
X147503390Y-79559523D02*
X147551009Y-79607142D01*
X147551009Y-79607142D02*
X147646247Y-79654761D01*
X107166667Y-106157200D02*
X107309524Y-106204819D01*
X107309524Y-106204819D02*
X107547619Y-106204819D01*
X107547619Y-106204819D02*
X107642857Y-106157200D01*
X107642857Y-106157200D02*
X107690476Y-106109580D01*
X107690476Y-106109580D02*
X107738095Y-106014342D01*
X107738095Y-106014342D02*
X107738095Y-105919104D01*
X107738095Y-105919104D02*
X107690476Y-105823866D01*
X107690476Y-105823866D02*
X107642857Y-105776247D01*
X107642857Y-105776247D02*
X107547619Y-105728628D01*
X107547619Y-105728628D02*
X107357143Y-105681009D01*
X107357143Y-105681009D02*
X107261905Y-105633390D01*
X107261905Y-105633390D02*
X107214286Y-105585771D01*
X107214286Y-105585771D02*
X107166667Y-105490533D01*
X107166667Y-105490533D02*
X107166667Y-105395295D01*
X107166667Y-105395295D02*
X107214286Y-105300057D01*
X107214286Y-105300057D02*
X107261905Y-105252438D01*
X107261905Y-105252438D02*
X107357143Y-105204819D01*
X107357143Y-105204819D02*
X107595238Y-105204819D01*
X107595238Y-105204819D02*
X107738095Y-105252438D01*
X108071429Y-105204819D02*
X108309524Y-106204819D01*
X108309524Y-106204819D02*
X108500000Y-105490533D01*
X108500000Y-105490533D02*
X108690476Y-106204819D01*
X108690476Y-106204819D02*
X108928572Y-105204819D01*
X109261905Y-105300057D02*
X109309524Y-105252438D01*
X109309524Y-105252438D02*
X109404762Y-105204819D01*
X109404762Y-105204819D02*
X109642857Y-105204819D01*
X109642857Y-105204819D02*
X109738095Y-105252438D01*
X109738095Y-105252438D02*
X109785714Y-105300057D01*
X109785714Y-105300057D02*
X109833333Y-105395295D01*
X109833333Y-105395295D02*
X109833333Y-105490533D01*
X109833333Y-105490533D02*
X109785714Y-105633390D01*
X109785714Y-105633390D02*
X109214286Y-106204819D01*
X109214286Y-106204819D02*
X109833333Y-106204819D01*
X109344819Y-92806904D02*
X110154342Y-92806904D01*
X110154342Y-92806904D02*
X110249580Y-92759285D01*
X110249580Y-92759285D02*
X110297200Y-92711666D01*
X110297200Y-92711666D02*
X110344819Y-92616428D01*
X110344819Y-92616428D02*
X110344819Y-92425952D01*
X110344819Y-92425952D02*
X110297200Y-92330714D01*
X110297200Y-92330714D02*
X110249580Y-92283095D01*
X110249580Y-92283095D02*
X110154342Y-92235476D01*
X110154342Y-92235476D02*
X109344819Y-92235476D01*
X110344819Y-91235476D02*
X110344819Y-91806904D01*
X110344819Y-91521190D02*
X109344819Y-91521190D01*
X109344819Y-91521190D02*
X109487676Y-91616428D01*
X109487676Y-91616428D02*
X109582914Y-91711666D01*
X109582914Y-91711666D02*
X109630533Y-91806904D01*
X132666666Y-75034819D02*
X132666666Y-75749104D01*
X132666666Y-75749104D02*
X132619047Y-75891961D01*
X132619047Y-75891961D02*
X132523809Y-75987200D01*
X132523809Y-75987200D02*
X132380952Y-76034819D01*
X132380952Y-76034819D02*
X132285714Y-76034819D01*
X133047619Y-75034819D02*
X133666666Y-75034819D01*
X133666666Y-75034819D02*
X133333333Y-75415771D01*
X133333333Y-75415771D02*
X133476190Y-75415771D01*
X133476190Y-75415771D02*
X133571428Y-75463390D01*
X133571428Y-75463390D02*
X133619047Y-75511009D01*
X133619047Y-75511009D02*
X133666666Y-75606247D01*
X133666666Y-75606247D02*
X133666666Y-75844342D01*
X133666666Y-75844342D02*
X133619047Y-75939580D01*
X133619047Y-75939580D02*
X133571428Y-75987200D01*
X133571428Y-75987200D02*
X133476190Y-76034819D01*
X133476190Y-76034819D02*
X133190476Y-76034819D01*
X133190476Y-76034819D02*
X133095238Y-75987200D01*
X133095238Y-75987200D02*
X133047619Y-75939580D01*
X107333333Y-102324819D02*
X107000000Y-101848628D01*
X106761905Y-102324819D02*
X106761905Y-101324819D01*
X106761905Y-101324819D02*
X107142857Y-101324819D01*
X107142857Y-101324819D02*
X107238095Y-101372438D01*
X107238095Y-101372438D02*
X107285714Y-101420057D01*
X107285714Y-101420057D02*
X107333333Y-101515295D01*
X107333333Y-101515295D02*
X107333333Y-101658152D01*
X107333333Y-101658152D02*
X107285714Y-101753390D01*
X107285714Y-101753390D02*
X107238095Y-101801009D01*
X107238095Y-101801009D02*
X107142857Y-101848628D01*
X107142857Y-101848628D02*
X106761905Y-101848628D01*
X107714286Y-101420057D02*
X107761905Y-101372438D01*
X107761905Y-101372438D02*
X107857143Y-101324819D01*
X107857143Y-101324819D02*
X108095238Y-101324819D01*
X108095238Y-101324819D02*
X108190476Y-101372438D01*
X108190476Y-101372438D02*
X108238095Y-101420057D01*
X108238095Y-101420057D02*
X108285714Y-101515295D01*
X108285714Y-101515295D02*
X108285714Y-101610533D01*
X108285714Y-101610533D02*
X108238095Y-101753390D01*
X108238095Y-101753390D02*
X107666667Y-102324819D01*
X107666667Y-102324819D02*
X108285714Y-102324819D01*
X134304819Y-105761904D02*
X135114342Y-105761904D01*
X135114342Y-105761904D02*
X135209580Y-105714285D01*
X135209580Y-105714285D02*
X135257200Y-105666666D01*
X135257200Y-105666666D02*
X135304819Y-105571428D01*
X135304819Y-105571428D02*
X135304819Y-105380952D01*
X135304819Y-105380952D02*
X135257200Y-105285714D01*
X135257200Y-105285714D02*
X135209580Y-105238095D01*
X135209580Y-105238095D02*
X135114342Y-105190476D01*
X135114342Y-105190476D02*
X134304819Y-105190476D01*
X134304819Y-104809523D02*
X134304819Y-104190476D01*
X134304819Y-104190476D02*
X134685771Y-104523809D01*
X134685771Y-104523809D02*
X134685771Y-104380952D01*
X134685771Y-104380952D02*
X134733390Y-104285714D01*
X134733390Y-104285714D02*
X134781009Y-104238095D01*
X134781009Y-104238095D02*
X134876247Y-104190476D01*
X134876247Y-104190476D02*
X135114342Y-104190476D01*
X135114342Y-104190476D02*
X135209580Y-104238095D01*
X135209580Y-104238095D02*
X135257200Y-104285714D01*
X135257200Y-104285714D02*
X135304819Y-104380952D01*
X135304819Y-104380952D02*
X135304819Y-104666666D01*
X135304819Y-104666666D02*
X135257200Y-104761904D01*
X135257200Y-104761904D02*
X135209580Y-104809523D01*
X131991905Y-96994819D02*
X131991905Y-95994819D01*
X131991905Y-95994819D02*
X132230000Y-95994819D01*
X132230000Y-95994819D02*
X132372857Y-96042438D01*
X132372857Y-96042438D02*
X132468095Y-96137676D01*
X132468095Y-96137676D02*
X132515714Y-96232914D01*
X132515714Y-96232914D02*
X132563333Y-96423390D01*
X132563333Y-96423390D02*
X132563333Y-96566247D01*
X132563333Y-96566247D02*
X132515714Y-96756723D01*
X132515714Y-96756723D02*
X132468095Y-96851961D01*
X132468095Y-96851961D02*
X132372857Y-96947200D01*
X132372857Y-96947200D02*
X132230000Y-96994819D01*
X132230000Y-96994819D02*
X131991905Y-96994819D01*
X133515714Y-96994819D02*
X132944286Y-96994819D01*
X133230000Y-96994819D02*
X133230000Y-95994819D01*
X133230000Y-95994819D02*
X133134762Y-96137676D01*
X133134762Y-96137676D02*
X133039524Y-96232914D01*
X133039524Y-96232914D02*
X132944286Y-96280533D01*
X147074819Y-104583333D02*
X147789104Y-104583333D01*
X147789104Y-104583333D02*
X147931961Y-104630952D01*
X147931961Y-104630952D02*
X148027200Y-104726190D01*
X148027200Y-104726190D02*
X148074819Y-104869047D01*
X148074819Y-104869047D02*
X148074819Y-104964285D01*
X147170057Y-104154761D02*
X147122438Y-104107142D01*
X147122438Y-104107142D02*
X147074819Y-104011904D01*
X147074819Y-104011904D02*
X147074819Y-103773809D01*
X147074819Y-103773809D02*
X147122438Y-103678571D01*
X147122438Y-103678571D02*
X147170057Y-103630952D01*
X147170057Y-103630952D02*
X147265295Y-103583333D01*
X147265295Y-103583333D02*
X147360533Y-103583333D01*
X147360533Y-103583333D02*
X147503390Y-103630952D01*
X147503390Y-103630952D02*
X148074819Y-104202380D01*
X148074819Y-104202380D02*
X148074819Y-103583333D01*
X97666666Y-86494819D02*
X97666666Y-87209104D01*
X97666666Y-87209104D02*
X97619047Y-87351961D01*
X97619047Y-87351961D02*
X97523809Y-87447200D01*
X97523809Y-87447200D02*
X97380952Y-87494819D01*
X97380952Y-87494819D02*
X97285714Y-87494819D01*
X98571428Y-86828152D02*
X98571428Y-87494819D01*
X98333333Y-86447200D02*
X98095238Y-87161485D01*
X98095238Y-87161485D02*
X98714285Y-87161485D01*
X122738095Y-95904819D02*
X122738095Y-96714342D01*
X122738095Y-96714342D02*
X122785714Y-96809580D01*
X122785714Y-96809580D02*
X122833333Y-96857200D01*
X122833333Y-96857200D02*
X122928571Y-96904819D01*
X122928571Y-96904819D02*
X123119047Y-96904819D01*
X123119047Y-96904819D02*
X123214285Y-96857200D01*
X123214285Y-96857200D02*
X123261904Y-96809580D01*
X123261904Y-96809580D02*
X123309523Y-96714342D01*
X123309523Y-96714342D02*
X123309523Y-95904819D01*
X123738095Y-96000057D02*
X123785714Y-95952438D01*
X123785714Y-95952438D02*
X123880952Y-95904819D01*
X123880952Y-95904819D02*
X124119047Y-95904819D01*
X124119047Y-95904819D02*
X124214285Y-95952438D01*
X124214285Y-95952438D02*
X124261904Y-96000057D01*
X124261904Y-96000057D02*
X124309523Y-96095295D01*
X124309523Y-96095295D02*
X124309523Y-96190533D01*
X124309523Y-96190533D02*
X124261904Y-96333390D01*
X124261904Y-96333390D02*
X123690476Y-96904819D01*
X123690476Y-96904819D02*
X124309523Y-96904819D01*
X107333333Y-108374819D02*
X107000000Y-107898628D01*
X106761905Y-108374819D02*
X106761905Y-107374819D01*
X106761905Y-107374819D02*
X107142857Y-107374819D01*
X107142857Y-107374819D02*
X107238095Y-107422438D01*
X107238095Y-107422438D02*
X107285714Y-107470057D01*
X107285714Y-107470057D02*
X107333333Y-107565295D01*
X107333333Y-107565295D02*
X107333333Y-107708152D01*
X107333333Y-107708152D02*
X107285714Y-107803390D01*
X107285714Y-107803390D02*
X107238095Y-107851009D01*
X107238095Y-107851009D02*
X107142857Y-107898628D01*
X107142857Y-107898628D02*
X106761905Y-107898628D01*
X108285714Y-108374819D02*
X107714286Y-108374819D01*
X108000000Y-108374819D02*
X108000000Y-107374819D01*
X108000000Y-107374819D02*
X107904762Y-107517676D01*
X107904762Y-107517676D02*
X107809524Y-107612914D01*
X107809524Y-107612914D02*
X107714286Y-107660533D01*
X107333333Y-98274819D02*
X107000000Y-97798628D01*
X106761905Y-98274819D02*
X106761905Y-97274819D01*
X106761905Y-97274819D02*
X107142857Y-97274819D01*
X107142857Y-97274819D02*
X107238095Y-97322438D01*
X107238095Y-97322438D02*
X107285714Y-97370057D01*
X107285714Y-97370057D02*
X107333333Y-97465295D01*
X107333333Y-97465295D02*
X107333333Y-97608152D01*
X107333333Y-97608152D02*
X107285714Y-97703390D01*
X107285714Y-97703390D02*
X107238095Y-97751009D01*
X107238095Y-97751009D02*
X107142857Y-97798628D01*
X107142857Y-97798628D02*
X106761905Y-97798628D01*
X107666667Y-97274819D02*
X108285714Y-97274819D01*
X108285714Y-97274819D02*
X107952381Y-97655771D01*
X107952381Y-97655771D02*
X108095238Y-97655771D01*
X108095238Y-97655771D02*
X108190476Y-97703390D01*
X108190476Y-97703390D02*
X108238095Y-97751009D01*
X108238095Y-97751009D02*
X108285714Y-97846247D01*
X108285714Y-97846247D02*
X108285714Y-98084342D01*
X108285714Y-98084342D02*
X108238095Y-98179580D01*
X108238095Y-98179580D02*
X108190476Y-98227200D01*
X108190476Y-98227200D02*
X108095238Y-98274819D01*
X108095238Y-98274819D02*
X107809524Y-98274819D01*
X107809524Y-98274819D02*
X107714286Y-98227200D01*
X107714286Y-98227200D02*
X107666667Y-98179580D01*
X97666666Y-73264819D02*
X97666666Y-73979104D01*
X97666666Y-73979104D02*
X97619047Y-74121961D01*
X97619047Y-74121961D02*
X97523809Y-74217200D01*
X97523809Y-74217200D02*
X97380952Y-74264819D01*
X97380952Y-74264819D02*
X97285714Y-74264819D01*
X98666666Y-74264819D02*
X98095238Y-74264819D01*
X98380952Y-74264819D02*
X98380952Y-73264819D01*
X98380952Y-73264819D02*
X98285714Y-73407676D01*
X98285714Y-73407676D02*
X98190476Y-73502914D01*
X98190476Y-73502914D02*
X98095238Y-73550533D01*
X94157200Y-107333332D02*
X94204819Y-107190475D01*
X94204819Y-107190475D02*
X94204819Y-106952380D01*
X94204819Y-106952380D02*
X94157200Y-106857142D01*
X94157200Y-106857142D02*
X94109580Y-106809523D01*
X94109580Y-106809523D02*
X94014342Y-106761904D01*
X94014342Y-106761904D02*
X93919104Y-106761904D01*
X93919104Y-106761904D02*
X93823866Y-106809523D01*
X93823866Y-106809523D02*
X93776247Y-106857142D01*
X93776247Y-106857142D02*
X93728628Y-106952380D01*
X93728628Y-106952380D02*
X93681009Y-107142856D01*
X93681009Y-107142856D02*
X93633390Y-107238094D01*
X93633390Y-107238094D02*
X93585771Y-107285713D01*
X93585771Y-107285713D02*
X93490533Y-107333332D01*
X93490533Y-107333332D02*
X93395295Y-107333332D01*
X93395295Y-107333332D02*
X93300057Y-107285713D01*
X93300057Y-107285713D02*
X93252438Y-107238094D01*
X93252438Y-107238094D02*
X93204819Y-107142856D01*
X93204819Y-107142856D02*
X93204819Y-106904761D01*
X93204819Y-106904761D02*
X93252438Y-106761904D01*
X93204819Y-106428570D02*
X94204819Y-106190475D01*
X94204819Y-106190475D02*
X93490533Y-105999999D01*
X93490533Y-105999999D02*
X94204819Y-105809523D01*
X94204819Y-105809523D02*
X93204819Y-105571428D01*
X94204819Y-104666666D02*
X94204819Y-105238094D01*
X94204819Y-104952380D02*
X93204819Y-104952380D01*
X93204819Y-104952380D02*
X93347676Y-105047618D01*
X93347676Y-105047618D02*
X93442914Y-105142856D01*
X93442914Y-105142856D02*
X93490533Y-105238094D01*
X147107319Y-92333333D02*
X147821604Y-92333333D01*
X147821604Y-92333333D02*
X147964461Y-92380952D01*
X147964461Y-92380952D02*
X148059700Y-92476190D01*
X148059700Y-92476190D02*
X148107319Y-92619047D01*
X148107319Y-92619047D02*
X148107319Y-92714285D01*
X147107319Y-91380952D02*
X147107319Y-91857142D01*
X147107319Y-91857142D02*
X147583509Y-91904761D01*
X147583509Y-91904761D02*
X147535890Y-91857142D01*
X147535890Y-91857142D02*
X147488271Y-91761904D01*
X147488271Y-91761904D02*
X147488271Y-91523809D01*
X147488271Y-91523809D02*
X147535890Y-91428571D01*
X147535890Y-91428571D02*
X147583509Y-91380952D01*
X147583509Y-91380952D02*
X147678747Y-91333333D01*
X147678747Y-91333333D02*
X147916842Y-91333333D01*
X147916842Y-91333333D02*
X148012080Y-91380952D01*
X148012080Y-91380952D02*
X148059700Y-91428571D01*
X148059700Y-91428571D02*
X148107319Y-91523809D01*
X148107319Y-91523809D02*
X148107319Y-91761904D01*
X148107319Y-91761904D02*
X148059700Y-91857142D01*
X148059700Y-91857142D02*
X148012080Y-91904761D01*
X112095237Y-115454819D02*
X111523809Y-115454819D01*
X111809523Y-115454819D02*
X111809523Y-114454819D01*
X111809523Y-114454819D02*
X111714285Y-114597676D01*
X111714285Y-114597676D02*
X111619047Y-114692914D01*
X111619047Y-114692914D02*
X111523809Y-114740533D01*
X112714285Y-114454819D02*
X112809523Y-114454819D01*
X112809523Y-114454819D02*
X112904761Y-114502438D01*
X112904761Y-114502438D02*
X112952380Y-114550057D01*
X112952380Y-114550057D02*
X112999999Y-114645295D01*
X112999999Y-114645295D02*
X113047618Y-114835771D01*
X113047618Y-114835771D02*
X113047618Y-115073866D01*
X113047618Y-115073866D02*
X112999999Y-115264342D01*
X112999999Y-115264342D02*
X112952380Y-115359580D01*
X112952380Y-115359580D02*
X112904761Y-115407200D01*
X112904761Y-115407200D02*
X112809523Y-115454819D01*
X112809523Y-115454819D02*
X112714285Y-115454819D01*
X112714285Y-115454819D02*
X112619047Y-115407200D01*
X112619047Y-115407200D02*
X112571428Y-115359580D01*
X112571428Y-115359580D02*
X112523809Y-115264342D01*
X112523809Y-115264342D02*
X112476190Y-115073866D01*
X112476190Y-115073866D02*
X112476190Y-114835771D01*
X112476190Y-114835771D02*
X112523809Y-114645295D01*
X112523809Y-114645295D02*
X112571428Y-114550057D01*
X112571428Y-114550057D02*
X112619047Y-114502438D01*
X112619047Y-114502438D02*
X112714285Y-114454819D01*
X113904761Y-114788152D02*
X113904761Y-115454819D01*
X113476190Y-114788152D02*
X113476190Y-115311961D01*
X113476190Y-115311961D02*
X113523809Y-115407200D01*
X113523809Y-115407200D02*
X113619047Y-115454819D01*
X113619047Y-115454819D02*
X113761904Y-115454819D01*
X113761904Y-115454819D02*
X113857142Y-115407200D01*
X113857142Y-115407200D02*
X113904761Y-115359580D01*
X114238095Y-114788152D02*
X114619047Y-114788152D01*
X114380952Y-115454819D02*
X114380952Y-114597676D01*
X114380952Y-114597676D02*
X114428571Y-114502438D01*
X114428571Y-114502438D02*
X114523809Y-114454819D01*
X114523809Y-114454819D02*
X114619047Y-114454819D01*
X115476190Y-115454819D02*
X114904762Y-115454819D01*
X115190476Y-115454819D02*
X115190476Y-114454819D01*
X115190476Y-114454819D02*
X115095238Y-114597676D01*
X115095238Y-114597676D02*
X115000000Y-114692914D01*
X115000000Y-114692914D02*
X114904762Y-114740533D01*
D11*
%TO.C,10uf2*%
X119880000Y-107630000D02*
X125120000Y-107630000D01*
X119880000Y-110370000D02*
X119880000Y-107630000D01*
X125120000Y-107630000D02*
X125120000Y-110370000D01*
X125120000Y-110370000D02*
X119880000Y-110370000D01*
%TO.C,J6*%
X138580000Y-74380000D02*
X146620000Y-74380000D01*
X138580000Y-77200000D02*
X138580000Y-74380000D01*
X138580000Y-85120000D02*
X138580000Y-77800000D01*
X140700000Y-74380000D02*
X140700000Y-75620000D01*
X140700000Y-79380000D02*
X140700000Y-81957000D01*
X140700000Y-83043000D02*
X140700000Y-85120000D01*
X142000000Y-74380000D02*
X142000000Y-75620000D01*
X142000000Y-79380000D02*
X142000000Y-80688000D01*
X142000000Y-84312000D02*
X142000000Y-85120000D01*
X143000000Y-74380000D02*
X143000000Y-75620000D01*
X143000000Y-79380000D02*
X143000000Y-80688000D01*
X143000000Y-84312000D02*
X143000000Y-85120000D01*
X146620000Y-74380000D02*
X146620000Y-85120000D01*
X146620000Y-85120000D02*
X138580000Y-85120000D01*
X138580000Y-77500000D02*
X137970000Y-77940000D01*
X137970000Y-77060000D01*
X138580000Y-77500000D01*
G36*
X138580000Y-77500000D02*
G01*
X137970000Y-77940000D01*
X137970000Y-77060000D01*
X138580000Y-77500000D01*
G37*
%TO.C,SW2*%
X105000000Y-109250000D02*
X105000000Y-110750000D01*
X106250000Y-113250000D02*
X110750000Y-113250000D01*
X110750000Y-106750000D02*
X106250000Y-106750000D01*
X112000000Y-110750000D02*
X112000000Y-109250000D01*
%TO.C,U1*%
X111380000Y-67755000D02*
X111380000Y-73915000D01*
X111380000Y-67755000D02*
X129620000Y-67755000D01*
X111380000Y-92715000D02*
X111380000Y-93495000D01*
X111380000Y-93495000D02*
X112380000Y-93495000D01*
X129620000Y-67755000D02*
X129620000Y-74170000D01*
X129620000Y-92715000D02*
X129620000Y-93495000D01*
X129620000Y-93495000D02*
X128620000Y-93495000D01*
X111375000Y-74640000D02*
X110875000Y-74640000D01*
X111375000Y-74140000D01*
X111375000Y-74640000D01*
G36*
X111375000Y-74640000D02*
G01*
X110875000Y-74640000D01*
X111375000Y-74140000D01*
X111375000Y-74640000D01*
G37*
%TO.C,J3*%
X131620000Y-76580000D02*
X133000000Y-76580000D01*
X131620000Y-77960000D02*
X131620000Y-76580000D01*
X131620000Y-79230000D02*
X131620000Y-84420000D01*
X131620000Y-79230000D02*
X134380000Y-79230000D01*
X131620000Y-84420000D02*
X134380000Y-84420000D01*
X134380000Y-79230000D02*
X134380000Y-84420000D01*
%TO.C,R2*%
X104230000Y-98130000D02*
X104230000Y-98460000D01*
X104230000Y-100870000D02*
X104230000Y-100540000D01*
X110770000Y-98130000D02*
X104230000Y-98130000D01*
X110770000Y-98460000D02*
X110770000Y-98130000D01*
X110770000Y-100540000D02*
X110770000Y-100870000D01*
X110770000Y-100870000D02*
X104230000Y-100870000D01*
%TO.C,U3*%
X130650000Y-106590000D02*
X134410000Y-106590000D01*
X130650000Y-113410000D02*
X134410000Y-113410000D01*
X134410000Y-106590000D02*
X134410000Y-107850000D01*
X134410000Y-113410000D02*
X134410000Y-112150000D01*
X129370000Y-106690000D02*
X129130000Y-106360000D01*
X129610000Y-106360000D01*
X129370000Y-106690000D01*
G36*
X129370000Y-106690000D02*
G01*
X129130000Y-106360000D01*
X129610000Y-106360000D01*
X129370000Y-106690000D01*
G37*
%TO.C,D1*%
X130170000Y-98955000D02*
X130170000Y-102045000D01*
X130170000Y-98955170D02*
G75*
G02*
X135720000Y-100500000I2560000J-1544830D01*
G01*
X135720000Y-100500000D02*
G75*
G02*
X130170000Y-102044830I-2990000J0D01*
G01*
X135230000Y-100500000D02*
G75*
G02*
X130230000Y-100500000I-2500000J0D01*
G01*
X130230000Y-100500000D02*
G75*
G02*
X135230000Y-100500000I2500000J0D01*
G01*
%TO.C,J2*%
X138580000Y-98880000D02*
X146620000Y-98880000D01*
X138580000Y-101700000D02*
X138580000Y-98880000D01*
X138580000Y-109620000D02*
X138580000Y-102300000D01*
X140700000Y-98880000D02*
X140700000Y-100120000D01*
X140700000Y-103880000D02*
X140700000Y-106457000D01*
X140700000Y-107543000D02*
X140700000Y-109620000D01*
X142000000Y-98880000D02*
X142000000Y-100120000D01*
X142000000Y-103880000D02*
X142000000Y-105188000D01*
X142000000Y-108812000D02*
X142000000Y-109620000D01*
X143000000Y-98880000D02*
X143000000Y-100120000D01*
X143000000Y-103880000D02*
X143000000Y-105188000D01*
X143000000Y-108812000D02*
X143000000Y-109620000D01*
X146620000Y-98880000D02*
X146620000Y-109620000D01*
X146620000Y-109620000D02*
X138580000Y-109620000D01*
X138580000Y-102000000D02*
X137970000Y-102440000D01*
X137970000Y-101560000D01*
X138580000Y-102000000D01*
G36*
X138580000Y-102000000D02*
G01*
X137970000Y-102440000D01*
X137970000Y-101560000D01*
X138580000Y-102000000D01*
G37*
%TO.C,J4*%
X96620000Y-88040000D02*
X98000000Y-88040000D01*
X96620000Y-89420000D02*
X96620000Y-88040000D01*
X96620000Y-90690000D02*
X96620000Y-98420000D01*
X96620000Y-90690000D02*
X99380000Y-90690000D01*
X96620000Y-98420000D02*
X99380000Y-98420000D01*
X99380000Y-90690000D02*
X99380000Y-98420000D01*
%TO.C,U2*%
X120740000Y-97290000D02*
X126260000Y-97290000D01*
X120740000Y-97465000D02*
X120740000Y-97290000D01*
X120740000Y-105710000D02*
X120740000Y-105535000D01*
X126260000Y-97290000D02*
X126260000Y-97465000D01*
X126260000Y-105535000D02*
X126260000Y-105710000D01*
X126260000Y-105710000D02*
X120740000Y-105710000D01*
X120000000Y-97460000D02*
X119660000Y-96990000D01*
X120340000Y-96990000D01*
X120000000Y-97460000D01*
G36*
X120000000Y-97460000D02*
G01*
X119660000Y-96990000D01*
X120340000Y-96990000D01*
X120000000Y-97460000D01*
G37*
%TO.C,R1*%
X104230000Y-102180000D02*
X104230000Y-102510000D01*
X104230000Y-104920000D02*
X104230000Y-104590000D01*
X110770000Y-102180000D02*
X104230000Y-102180000D01*
X110770000Y-102510000D02*
X110770000Y-102180000D01*
X110770000Y-104590000D02*
X110770000Y-104920000D01*
X110770000Y-104920000D02*
X104230000Y-104920000D01*
%TO.C,R3*%
X104230000Y-94080000D02*
X104230000Y-94410000D01*
X104230000Y-96820000D02*
X104230000Y-96490000D01*
X110770000Y-94080000D02*
X104230000Y-94080000D01*
X110770000Y-94410000D02*
X110770000Y-94080000D01*
X110770000Y-96490000D02*
X110770000Y-96820000D01*
X110770000Y-96820000D02*
X104230000Y-96820000D01*
%TO.C,J1*%
X96620000Y-74810000D02*
X98000000Y-74810000D01*
X96620000Y-76190000D02*
X96620000Y-74810000D01*
X96620000Y-77460000D02*
X96620000Y-85190000D01*
X96620000Y-77460000D02*
X99380000Y-77460000D01*
X96620000Y-85190000D02*
X99380000Y-85190000D01*
X99380000Y-77460000D02*
X99380000Y-85190000D01*
%TO.C,SW1*%
X94750000Y-103750000D02*
X94750000Y-108250000D01*
X97250000Y-109500000D02*
X98750000Y-109500000D01*
X98750000Y-102500000D02*
X97250000Y-102500000D01*
X101250000Y-108250000D02*
X101250000Y-103750000D01*
%TO.C,J5*%
X138612500Y-86630000D02*
X146652500Y-86630000D01*
X138612500Y-89450000D02*
X138612500Y-86630000D01*
X138612500Y-97370000D02*
X138612500Y-90050000D01*
X140732500Y-86630000D02*
X140732500Y-87870000D01*
X140732500Y-91630000D02*
X140732500Y-94207000D01*
X140732500Y-95293000D02*
X140732500Y-97370000D01*
X142032500Y-86630000D02*
X142032500Y-87870000D01*
X142032500Y-91630000D02*
X142032500Y-92938000D01*
X142032500Y-96562000D02*
X142032500Y-97370000D01*
X143032500Y-86630000D02*
X143032500Y-87870000D01*
X143032500Y-91630000D02*
X143032500Y-92938000D01*
X143032500Y-96562000D02*
X143032500Y-97370000D01*
X146652500Y-86630000D02*
X146652500Y-97370000D01*
X146652500Y-97370000D02*
X138612500Y-97370000D01*
X138612500Y-89750000D02*
X138002500Y-90190000D01*
X138002500Y-89310000D01*
X138612500Y-89750000D01*
G36*
X138612500Y-89750000D02*
G01*
X138002500Y-90190000D01*
X138002500Y-89310000D01*
X138612500Y-89750000D01*
G37*
%TO.C,10uf1*%
X114130000Y-111130000D02*
X119370000Y-111130000D01*
X114130000Y-113870000D02*
X114130000Y-111130000D01*
X119370000Y-111130000D02*
X119370000Y-113870000D01*
X119370000Y-113870000D02*
X114130000Y-113870000D01*
%TD*%
M02*
