M48
; DRILL file {KiCad 9.0.6} date 2026-04-09T18:21:26+0530
; FORMAT={-:-/ absolute / metric / decimal}
; #@! TF.CreationDate,2026-04-09T18:21:26+05:30
; #@! TF.GenerationSoftware,Kicad,Pcbnew,9.0.6
; #@! TF.FileFunction,Plated,1,2,PTH
FMAT,2
METRIC
; #@! TA.AperFunction,Plated,PTH,ComponentDrill
T1C0.200
; #@! TA.AperFunction,Plated,PTH,ViaDrill
T2C0.300
; #@! TA.AperFunction,Plated,PTH,ComponentDrill
T3C0.800
; #@! TA.AperFunction,Plated,PTH,ComponentDrill
T4C0.900
; #@! TA.AperFunction,Plated,PTH,ComponentDrill
T5C1.000
; #@! TA.AperFunction,Plated,PTH,ComponentDrill
T6C1.100
; #@! TA.AperFunction,Plated,PTH,ComponentDrill
T7C1.300
%
G90
G05
T1
X118.295Y-81.942
X118.295Y-83.468
X119.057Y-81.18
X119.057Y-82.705
X119.057Y-84.23
X119.82Y-81.942
X119.82Y-83.468
X120.582Y-81.18
X120.582Y-82.705
X120.582Y-84.23
X121.345Y-81.942
X121.345Y-83.468
T2
X102.194Y-95.306
X102.5Y-108.0
X106.0Y-91.5
X107.0Y-93.5
X113.0Y-96.0
X114.5Y-91.275
X116.888Y-99.388
X117.0Y-104.976
X117.483Y-98.793
X125.0Y-102.4
X127.17Y-92.5
X127.77Y-91.275
X129.5Y-104.0
X130.0Y-100.5
X133.5Y-102.0
X136.0Y-99.0
X142.477Y-85.942
T3
X103.69Y-95.45
X103.69Y-99.5
X103.69Y-103.55
X111.31Y-95.45
X111.31Y-99.5
X111.31Y-103.55
X115.5Y-112.5
X118.0Y-112.5
X121.25Y-109.0
X123.75Y-109.0
T4
X131.46Y-100.5
X134.0Y-100.5
T5
X98.0Y-76.19
X98.0Y-78.73
X98.0Y-81.27
X98.0Y-83.81
X98.0Y-89.42
X98.0Y-91.96
X98.0Y-94.5
X98.0Y-97.04
X133.0Y-77.96
X133.0Y-80.5
X133.0Y-83.04
T6
X95.75Y-102.75
X95.75Y-109.25
X100.25Y-102.75
X100.25Y-109.25
X105.25Y-107.75
X105.25Y-112.25
X111.75Y-107.75
X111.75Y-112.25
T7
X142.5Y-77.5
X142.5Y-82.5
X142.5Y-102.0
X142.5Y-107.0
X142.532Y-89.75
X142.532Y-94.75
M30
