%TF.GenerationSoftware,KiCad,Pcbnew,9.0.6*%
%TF.CreationDate,2026-04-09T18:15:54+05:30*%
%TF.ProjectId,ESP32_Bot_PCB,45535033-325f-4426-9f74-5f5043422e6b,rev?*%
%TF.SameCoordinates,Original*%
%TF.FileFunction,Soldermask,Top*%
%TF.FilePolarity,Negative*%
%FSLAX46Y46*%
G04 Gerber Fmt 4.6, Leading zero omitted, Abs format (unit mm)*
G04 Created by KiCad (PCBNEW 9.0.6) date 2026-04-09 18:15:54*
%MOMM*%
%LPD*%
G01*
G04 APERTURE LIST*
G04 Aperture macros list*
%AMRoundRect*
0 Rectangle with rounded corners*
0 $1 Rounding radius*
0 $2 $3 $4 $5 $6 $7 $8 $9 X,Y pos of 4 corners*
0 Add a 4 corners polygon primitive as box body*
4,1,4,$2,$3,$4,$5,$6,$7,$8,$9,$2,$3,0*
0 Add four circle primitives for the rounded corners*
1,1,$1+$1,$2,$3*
1,1,$1+$1,$4,$5*
1,1,$1+$1,$6,$7*
1,1,$1+$1,$8,$9*
0 Add four rect primitives between the rounded corners*
20,1,$1+$1,$2,$3,$4,$5,0*
20,1,$1+$1,$4,$5,$6,$7,0*
20,1,$1+$1,$6,$7,$8,$9,0*
20,1,$1+$1,$8,$9,$2,$3,0*%
G04 Aperture macros list end*
%ADD10C,1.600000*%
%ADD11RoundRect,0.250001X-1.149999X1.149999X-1.149999X-1.149999X1.149999X-1.149999X1.149999X1.149999X0*%
%ADD12C,2.800000*%
%ADD13C,2.000000*%
%ADD14R,1.500000X0.900000*%
%ADD15R,0.900000X1.500000*%
%ADD16C,0.600000*%
%ADD17R,4.200000X4.200000*%
%ADD18R,1.700000X1.700000*%
%ADD19C,1.700000*%
%ADD20RoundRect,0.375000X-0.625000X-0.375000X0.625000X-0.375000X0.625000X0.375000X-0.625000X0.375000X0*%
%ADD21RoundRect,0.500000X-0.500000X-1.400000X0.500000X-1.400000X0.500000X1.400000X-0.500000X1.400000X0*%
%ADD22R,1.800000X1.800000*%
%ADD23C,1.800000*%
%ADD24RoundRect,0.100000X-0.850000X-0.100000X0.850000X-0.100000X0.850000X0.100000X-0.850000X0.100000X0*%
G04 APERTURE END LIST*
D10*
%TO.C,10uf2*%
X121250000Y-109000000D03*
X123750000Y-109000000D03*
%TD*%
D11*
%TO.C,J6*%
X142500000Y-77500000D03*
D12*
X142500000Y-82500000D03*
%TD*%
D13*
%TO.C,SW2*%
X105250000Y-107750000D03*
X111750000Y-107750000D03*
X105250000Y-112250000D03*
X111750000Y-112250000D03*
%TD*%
D14*
%TO.C,U1*%
X111750000Y-75365000D03*
X111750000Y-76635000D03*
X111750000Y-77905000D03*
X111750000Y-79175000D03*
X111750000Y-80445000D03*
X111750000Y-81715000D03*
X111750000Y-82985000D03*
X111750000Y-84255000D03*
X111750000Y-85525000D03*
X111750000Y-86795000D03*
X111750000Y-88065000D03*
X111750000Y-89335000D03*
X111750000Y-90605000D03*
X111750000Y-91875000D03*
D15*
X114790000Y-93125000D03*
X116060000Y-93125000D03*
X117330000Y-93125000D03*
X118600000Y-93125000D03*
X119870000Y-93125000D03*
X121140000Y-93125000D03*
X122410000Y-93125000D03*
X123680000Y-93125000D03*
X124950000Y-93125000D03*
X126220000Y-93125000D03*
D14*
X129250000Y-91875000D03*
X129250000Y-90605000D03*
X129250000Y-89335000D03*
X129250000Y-88065000D03*
X129250000Y-86795000D03*
X129250000Y-85525000D03*
X129250000Y-84255000D03*
X129250000Y-82985000D03*
X129250000Y-81715000D03*
X129250000Y-80445000D03*
X129250000Y-79175000D03*
X129250000Y-77905000D03*
X129250000Y-76635000D03*
X129250000Y-75365000D03*
D16*
X118295000Y-81942500D03*
X118295000Y-83467500D03*
X119057500Y-81180000D03*
X119057500Y-82705000D03*
X119057500Y-84230000D03*
X119820000Y-81942500D03*
D17*
X119820000Y-82705000D03*
D16*
X119820000Y-83467500D03*
X120582500Y-81180000D03*
X120582500Y-82705000D03*
X120582500Y-84230000D03*
X121345000Y-81942500D03*
X121345000Y-83467500D03*
%TD*%
D18*
%TO.C,J3*%
X133000000Y-77960000D03*
D19*
X133000000Y-80500000D03*
X133000000Y-83040000D03*
%TD*%
D10*
%TO.C,R2*%
X111310000Y-99500000D03*
X103690000Y-99500000D03*
%TD*%
D20*
%TO.C,U3*%
X129350000Y-107700000D03*
X129350000Y-110000000D03*
D21*
X135650000Y-110000000D03*
D20*
X129350000Y-112300000D03*
%TD*%
D22*
%TO.C,D1*%
X131460000Y-100500000D03*
D23*
X134000000Y-100500000D03*
%TD*%
D11*
%TO.C,J2*%
X142500000Y-102000000D03*
D12*
X142500000Y-107000000D03*
%TD*%
D18*
%TO.C,J4*%
X98000000Y-89420000D03*
D19*
X98000000Y-91960000D03*
X98000000Y-94500000D03*
X98000000Y-97040000D03*
%TD*%
D24*
%TO.C,U2*%
X120000000Y-97925000D03*
X120000000Y-98575000D03*
X120000000Y-99225000D03*
X120000000Y-99875000D03*
X120000000Y-100525000D03*
X120000000Y-101175000D03*
X120000000Y-101825000D03*
X120000000Y-102475000D03*
X120000000Y-103125000D03*
X120000000Y-103775000D03*
X120000000Y-104425000D03*
X120000000Y-105075000D03*
X127000000Y-105075000D03*
X127000000Y-104425000D03*
X127000000Y-103775000D03*
X127000000Y-103125000D03*
X127000000Y-102475000D03*
X127000000Y-101825000D03*
X127000000Y-101175000D03*
X127000000Y-100525000D03*
X127000000Y-99875000D03*
X127000000Y-99225000D03*
X127000000Y-98575000D03*
X127000000Y-97925000D03*
%TD*%
D10*
%TO.C,R1*%
X111310000Y-103550000D03*
X103690000Y-103550000D03*
%TD*%
%TO.C,R3*%
X111310000Y-95450000D03*
X103690000Y-95450000D03*
%TD*%
D18*
%TO.C,J1*%
X98000000Y-76190000D03*
D19*
X98000000Y-78730000D03*
X98000000Y-81270000D03*
X98000000Y-83810000D03*
%TD*%
D13*
%TO.C,SW1*%
X95750000Y-109250000D03*
X95750000Y-102750000D03*
X100250000Y-109250000D03*
X100250000Y-102750000D03*
%TD*%
D11*
%TO.C,J5*%
X142532500Y-89750000D03*
D12*
X142532500Y-94750000D03*
%TD*%
D10*
%TO.C,10uf1*%
X118000000Y-112500000D03*
X115500000Y-112500000D03*
%TD*%
M02*
