%TF.GenerationSoftware,KiCad,Pcbnew,9.0.6*%
%TF.CreationDate,2026-04-09T18:15:54+05:30*%
%TF.ProjectId,ESP32_Bot_PCB,45535033-325f-4426-9f74-5f5043422e6b,rev?*%
%TF.SameCoordinates,Original*%
%TF.FileFunction,Copper,L2,Bot*%
%TF.FilePolarity,Positive*%
%FSLAX46Y46*%
G04 Gerber Fmt 4.6, Leading zero omitted, Abs format (unit mm)*
G04 Created by KiCad (PCBNEW 9.0.6) date 2026-04-09 18:15:54*
%MOMM*%
%LPD*%
G01*
G04 APERTURE LIST*
G04 Aperture macros list*
%AMRoundRect*
0 Rectangle with rounded corners*
0 $1 Rounding radius*
0 $2 $3 $4 $5 $6 $7 $8 $9 X,Y pos of 4 corners*
0 Add a 4 corners polygon primitive as box body*
4,1,4,$2,$3,$4,$5,$6,$7,$8,$9,$2,$3,0*
0 Add four circle primitives for the rounded corners*
1,1,$1+$1,$2,$3*
1,1,$1+$1,$4,$5*
1,1,$1+$1,$6,$7*
1,1,$1+$1,$8,$9*
0 Add four rect primitives between the rounded corners*
20,1,$1+$1,$2,$3,$4,$5,0*
20,1,$1+$1,$4,$5,$6,$7,0*
20,1,$1+$1,$6,$7,$8,$9,0*
20,1,$1+$1,$8,$9,$2,$3,0*%
G04 Aperture macros list end*
%TA.AperFunction,ComponentPad*%
%ADD10C,1.600000*%
%TD*%
%TA.AperFunction,ComponentPad*%
%ADD11RoundRect,0.250001X-1.149999X1.149999X-1.149999X-1.149999X1.149999X-1.149999X1.149999X1.149999X0*%
%TD*%
%TA.AperFunction,ComponentPad*%
%ADD12C,2.800000*%
%TD*%
%TA.AperFunction,ComponentPad*%
%ADD13C,2.000000*%
%TD*%
%TA.AperFunction,HeatsinkPad*%
%ADD14C,0.600000*%
%TD*%
%TA.AperFunction,ComponentPad*%
%ADD15R,1.700000X1.700000*%
%TD*%
%TA.AperFunction,ComponentPad*%
%ADD16C,1.700000*%
%TD*%
%TA.AperFunction,ComponentPad*%
%ADD17R,1.800000X1.800000*%
%TD*%
%TA.AperFunction,ComponentPad*%
%ADD18C,1.800000*%
%TD*%
%TA.AperFunction,ViaPad*%
%ADD19C,0.600000*%
%TD*%
%TA.AperFunction,Conductor*%
%ADD20C,0.200000*%
%TD*%
G04 APERTURE END LIST*
D10*
%TO.P,10uf2,1*%
%TO.N,GND*%
X121250000Y-109000000D03*
%TO.P,10uf2,2*%
X123750000Y-109000000D03*
%TD*%
D11*
%TO.P,J6,1,Pin_1*%
%TO.N,Net-(J6-Pin_1)*%
X142500000Y-77500000D03*
D12*
%TO.P,J6,2,Pin_2*%
%TO.N,Net-(J6-Pin_2)*%
X142500000Y-82500000D03*
%TD*%
D13*
%TO.P,SW2,1,1*%
%TO.N,GND*%
X105250000Y-107750000D03*
X111750000Y-107750000D03*
%TO.P,SW2,2,2*%
%TO.N,Net-(U1-EN)*%
X105250000Y-112250000D03*
X111750000Y-112250000D03*
%TD*%
D14*
%TO.P,U1,39,GND*%
%TO.N,Net-(U1-GND-Pad1)*%
X118295000Y-81942500D03*
X118295000Y-83467500D03*
X119057500Y-81180000D03*
X119057500Y-82705000D03*
X119057500Y-84230000D03*
X119820000Y-81942500D03*
X119820000Y-83467500D03*
X120582500Y-81180000D03*
X120582500Y-82705000D03*
X120582500Y-84230000D03*
X121345000Y-81942500D03*
X121345000Y-83467500D03*
%TD*%
D15*
%TO.P,J3,1,Pin_1*%
%TO.N,Net-(J3-Pin_1)*%
X133000000Y-77960000D03*
D16*
%TO.P,J3,2,Pin_2*%
%TO.N,+5V*%
X133000000Y-80500000D03*
%TO.P,J3,3,Pin_3*%
%TO.N,GND*%
X133000000Y-83040000D03*
%TD*%
D10*
%TO.P,R2,1*%
%TO.N,Net-(U1-EN)*%
X111310000Y-99500000D03*
%TO.P,R2,2*%
%TO.N,+3.3V*%
X103690000Y-99500000D03*
%TD*%
D17*
%TO.P,D1,1,K*%
%TO.N,GND*%
X131460000Y-100500000D03*
D18*
%TO.P,D1,2,A*%
%TO.N,Net-(D1-A)*%
X134000000Y-100500000D03*
%TD*%
D11*
%TO.P,J2,1,Pin_1*%
%TO.N,unconnected-(J2-Pin_1-Pad1)*%
X142500000Y-102000000D03*
D12*
%TO.P,J2,2,Pin_2*%
%TO.N,unconnected-(J2-Pin_2-Pad2)*%
X142500000Y-107000000D03*
%TD*%
D15*
%TO.P,J4,1,Pin_1*%
%TO.N,+3.3V*%
X98000000Y-89420000D03*
D16*
%TO.P,J4,2,Pin_2*%
%TO.N,/TX*%
X98000000Y-91960000D03*
%TO.P,J4,3,Pin_3*%
%TO.N,/RX*%
X98000000Y-94500000D03*
%TO.P,J4,4,Pin_4*%
%TO.N,GND*%
X98000000Y-97040000D03*
%TD*%
D10*
%TO.P,R1,1*%
%TO.N,Net-(U1-IO2)*%
X111310000Y-103550000D03*
%TO.P,R1,2*%
%TO.N,Net-(D1-A)*%
X103690000Y-103550000D03*
%TD*%
%TO.P,R3,1*%
%TO.N,Net-(U1-IO0)*%
X111310000Y-95450000D03*
%TO.P,R3,2*%
%TO.N,+3.3V*%
X103690000Y-95450000D03*
%TD*%
D15*
%TO.P,J1,1,Pin_1*%
%TO.N,GND*%
X98000000Y-76190000D03*
D16*
%TO.P,J1,2,Pin_2*%
X98000000Y-78730000D03*
%TO.P,J1,3,Pin_3*%
%TO.N,/TX*%
X98000000Y-81270000D03*
%TO.P,J1,4,Pin_4*%
%TO.N,/RX*%
X98000000Y-83810000D03*
%TD*%
D13*
%TO.P,SW1,1,1*%
%TO.N,GND*%
X95750000Y-109250000D03*
X95750000Y-102750000D03*
%TO.P,SW1,2,2*%
%TO.N,Net-(U1-IO0)*%
X100250000Y-109250000D03*
X100250000Y-102750000D03*
%TD*%
D11*
%TO.P,J5,1,Pin_1*%
%TO.N,Net-(J5-Pin_1)*%
X142532500Y-89750000D03*
D12*
%TO.P,J5,2,Pin_2*%
%TO.N,Net-(J5-Pin_2)*%
X142532500Y-94750000D03*
%TD*%
D10*
%TO.P,10uf1,1*%
%TO.N,Net-(U3-VI)*%
X118000000Y-112500000D03*
%TO.P,10uf1,2*%
%TO.N,GND*%
X115500000Y-112500000D03*
%TD*%
D19*
%TO.N,GND*%
X133500000Y-102000000D03*
X136000000Y-99000000D03*
%TO.N,+3.3V*%
X102194265Y-95305735D03*
%TO.N,Net-(J5-Pin_2)*%
X117483123Y-98792507D03*
%TO.N,Net-(J5-Pin_1)*%
X142477034Y-85941515D03*
X125000000Y-102400000D03*
%TO.N,Net-(J6-Pin_1)*%
X117000000Y-104976000D03*
%TO.N,Net-(J6-Pin_2)*%
X116887815Y-99387815D03*
%TO.N,Net-(U1-EN)*%
X113000000Y-96000000D03*
X102500000Y-108000000D03*
%TO.N,Net-(U1-GND-Pad1)*%
X114500000Y-91275000D03*
%TO.N,Net-(U1-IO25)*%
X106000000Y-91500000D03*
%TO.N,Net-(U1-IO19)*%
X127770002Y-91275000D03*
%TO.N,Net-(U1-IO18)*%
X127170002Y-92500000D03*
%TO.N,Net-(U1-IO21)*%
X129500000Y-104000000D03*
%TO.N,Net-(U1-IO26)*%
X107000000Y-93500000D03*
%TO.N,Net-(U1-IO5)*%
X130000000Y-100500000D03*
%TD*%
D20*
%TO.N,GND*%
X133500000Y-102000000D02*
X133799000Y-101701000D01*
X133799000Y-101701000D02*
X132661000Y-101701000D01*
X132661000Y-101701000D02*
X131460000Y-100500000D01*
%TO.N,+3.3V*%
X102194265Y-95305735D02*
X103690000Y-96801470D01*
X103690000Y-96801470D02*
X103690000Y-99500000D01*
%TO.N,Net-(J5-Pin_2)*%
X117033550Y-74533550D02*
X132033550Y-74533550D01*
X140831500Y-93049000D02*
X142532500Y-94750000D01*
X143832500Y-86332500D02*
X143832500Y-86500000D01*
X117483123Y-98792507D02*
X113899000Y-95208384D01*
X140831500Y-88364840D02*
X140831500Y-93049000D01*
X132033550Y-74533550D02*
X143832500Y-86332500D01*
X113899000Y-77668100D02*
X117033550Y-74533550D01*
X143832500Y-86500000D02*
X142696340Y-86500000D01*
X113899000Y-95208384D02*
X113899000Y-77668100D01*
X142696340Y-86500000D02*
X140831500Y-88364840D01*
%TO.N,Net-(J5-Pin_1)*%
X130583900Y-79349000D02*
X135884519Y-79349000D01*
X135884519Y-79349000D02*
X142477034Y-85941515D01*
X123099000Y-86833900D02*
X130583900Y-79349000D01*
X123099000Y-100499000D02*
X123099000Y-86833900D01*
X125000000Y-102400000D02*
X123099000Y-100499000D01*
%TO.N,Net-(J6-Pin_1)*%
X144233500Y-79233500D02*
X142500000Y-77500000D01*
X134712078Y-104976000D02*
X144233500Y-95454578D01*
X117000000Y-104976000D02*
X134712078Y-104976000D01*
X144233500Y-95454578D02*
X144233500Y-79233500D01*
%TO.N,Net-(J6-Pin_2)*%
X140799000Y-76114840D02*
X140799000Y-80799000D01*
X113401000Y-95551057D02*
X113401000Y-77599000D01*
X140799000Y-80799000D02*
X142500000Y-82500000D01*
X116887815Y-99037872D02*
X113401000Y-95551057D01*
X113401000Y-77599000D02*
X117084000Y-73916000D01*
X142997840Y-73916000D02*
X140799000Y-76114840D01*
X116887815Y-99387815D02*
X116887815Y-99037872D01*
X117084000Y-73916000D02*
X142997840Y-73916000D01*
%TO.N,Net-(U1-EN)*%
X113000000Y-79000000D02*
X111500000Y-77500000D01*
X113000000Y-96000000D02*
X113000000Y-79000000D01*
X102500000Y-109500000D02*
X105250000Y-112250000D01*
X102500000Y-108000000D02*
X102500000Y-109500000D01*
%TO.N,Net-(U1-GND-Pad1)*%
X114500000Y-91275000D02*
X114500000Y-93500000D01*
%TO.N,Net-(U1-IO22)*%
X129000000Y-77500000D02*
X129500000Y-78000000D01*
X114500000Y-94500000D02*
X128500000Y-80500000D01*
X128500000Y-77500000D02*
X129000000Y-77500000D01*
X128500000Y-80500000D02*
X128500000Y-77500000D01*
%TO.N,Net-(U1-IO25)*%
X112399000Y-95751057D02*
X112399000Y-96248943D01*
X112399000Y-96248943D02*
X119150057Y-103000000D01*
X130000000Y-101500000D02*
X127000000Y-98500000D01*
X106000000Y-91500000D02*
X109000000Y-91500000D01*
X109000000Y-91500000D02*
X112599000Y-95099000D01*
X130000000Y-103000000D02*
X130000000Y-101500000D01*
X112599000Y-95099000D02*
X112599000Y-95551057D01*
X112599000Y-95551057D02*
X112399000Y-95751057D01*
X119150057Y-103000000D02*
X130000000Y-103000000D01*
X127000000Y-98500000D02*
X127500000Y-98500000D01*
%TO.N,Net-(U1-IO19)*%
X125019945Y-95500000D02*
X123500000Y-95500000D01*
X127770002Y-92749943D02*
X125019945Y-95500000D01*
X126000000Y-99000000D02*
X126932900Y-99000000D01*
X123500000Y-95500000D02*
X123500000Y-96500000D01*
X123500000Y-96500000D02*
X126000000Y-99000000D01*
X126932900Y-99000000D02*
X126966450Y-99033550D01*
X127770002Y-91275000D02*
X127770002Y-92749943D01*
%TO.N,Net-(U1-IO18)*%
X127170002Y-87329998D02*
X129000000Y-85500000D01*
X127170002Y-92500000D02*
X127170002Y-87329998D01*
%TO.N,Net-(U1-IO21)*%
X132500000Y-104000000D02*
X137500000Y-99000000D01*
X135500000Y-81500000D02*
X135349000Y-81651000D01*
X135349000Y-81651000D02*
X129151000Y-81651000D01*
X137500000Y-97500000D02*
X137500000Y-83500000D01*
X129500000Y-104000000D02*
X132500000Y-104000000D01*
X129151000Y-81651000D02*
X129000000Y-81500000D01*
X137500000Y-99000000D02*
X137500000Y-97500000D01*
X137500000Y-83500000D02*
X135500000Y-81500000D01*
%TO.N,Net-(U1-IO26)*%
X117000000Y-103500000D02*
X127000000Y-103500000D01*
X107000000Y-93500000D02*
X117000000Y-103500000D01*
%TO.N,Net-(U1-IO5)*%
X136000000Y-86500000D02*
X129500000Y-86500000D01*
X132058000Y-97500000D02*
X137000000Y-97500000D01*
X137000000Y-87500000D02*
X136000000Y-86500000D01*
X130000000Y-99558000D02*
X132058000Y-97500000D01*
X130000000Y-100500000D02*
X130000000Y-99558000D01*
X137000000Y-97500000D02*
X137000000Y-87500000D01*
%TD*%
M02*
